/* XPM */
static char *_4[] = {
/* columns rows colors chars-per-pixel */
"64 64 209 2 ",
"   c #060205",
".  c #090608",
"X  c #0C090C",
"o  c #1B181A",
"O  c #2B272A",
"+  c #373436",
"@  c #2C483C",
"#  c #293A59",
"$  c #2C3F61",
"%  c #413E40",
"&  c #2E4F42",
"*  c #324D43",
"=  c #345145",
"-  c #375548",
";  c #3B594C",
":  c #37574C",
">  c #3C5C52",
",  c #3C5F5A",
"<  c #2B465A",
"1  c #39695D",
"2  c #2E654D",
"3  c #294B6E",
"4  c #2E446B",
"5  c #30466D",
"6  c #324669",
"7  c #2B4D72",
"8  c #274A70",
"9  c #324B74",
"0  c #334D7A",
"q  c #2E5175",
"w  c #2D5279",
"e  c #335476",
"r  c #35547A",
"t  c #3C5C7D",
"y  c #36587C",
"u  c #3F6160",
"i  c #3A7664",
"p  c #3E7872",
"a  c #4A4649",
"s  c #514F51",
"d  c #405F53",
"f  c #585557",
"g  c #44635A",
"h  c #416C67",
"j  c #466866",
"k  c #526F7D",
"l  c #467879",
"z  c #446A74",
"x  c #676466",
"c  c #686567",
"v  c #696669",
"b  c #6C696B",
"n  c #706D6F",
"m  c #38996A",
"M  c #3C9E73",
"N  c #3E9B7B",
"B  c #399673",
"V  c #358B62",
"C  c #39A566",
"Z  c #39A26B",
"A  c #3AA96C",
"S  c #37A463",
"D  c #3DA274",
"F  c #3FA37B",
"G  c #4E817F",
"H  c #419E7F",
"J  c #41A47E",
"K  c #4CAB74",
"L  c #365384",
"P  c #3D5E81",
"I  c #375689",
"U  c #39598D",
"Y  c #375985",
"T  c #3A5D94",
"R  c #3C5F99",
"E  c #3D629D",
"W  c #3E65A3",
"Q  c #3E68A7",
"!  c #3F6AAB",
"~  c #3765AF",
"^  c #3867B0",
"/  c #3C6BB2",
"(  c #446282",
")  c #496585",
"_  c #4B6A85",
"`  c #4A698A",
"'  c #516E8C",
"]  c #4A7A86",
"[  c #56708D",
"{  c #59738D",
"}  c #577184",
"|  c #5B7591",
" . c #5E7995",
".. c #547698",
"X. c #4B7D96",
"o. c #607A97",
"O. c #406AAD",
"+. c #557BA7",
"@. c #406CB1",
"#. c #4472B4",
"$. c #4D7BB8",
"%. c #4A79B7",
"&. c #527EBB",
"*. c #439587",
"=. c #429B83",
"-. c #44958C",
";. c #459A8B",
":. c #4C9D8F",
">. c #498F9C",
",. c #4B8097",
"<. c #469392",
"1. c #489397",
"2. c #4A939B",
"3. c #499997",
"4. c #589B99",
"5. c #578990",
"6. c #48A483",
"7. c #58B185",
"8. c #56A692",
"9. c #63AD95",
"0. c #4C8DA4",
"q. c #4E8AAA",
"w. c #4C80A6",
"e. c #508BAF",
"r. c #5086AB",
"t. c #4D92A5",
"y. c #5090AD",
"u. c #5384B5",
"i. c #518AB3",
"p. c #5484BC",
"a. c #5A85BE",
"s. c #548CBC",
"d. c #5C8ABE",
"f. c #5295B6",
"g. c #519DB4",
"h. c #5493BB",
"j. c #5A94BD",
"k. c #5699BC",
"l. c #599BBB",
"z. c #4F82B8",
"x. c #6096BE",
"c. c #6399A9",
"v. c #5AA6A3",
"b. c #5AA6B6",
"n. c #5CA4B8",
"m. c #57A7B3",
"M. c #5EB2B4",
"N. c #6CABBF",
"B. c #68A8B9",
"V. c #6EB4BD",
"C. c #6EBABB",
"Z. c #67B7B5",
"A. c #70BDBF",
"S. c #6FB4A7",
"D. c #6DC0B8",
"F. c #6DC0B7",
"G. c #71C3BD",
"H. c #578CC1",
"J. c #588AC5",
"K. c #5693C1",
"L. c #5993C3",
"P. c #648CC3",
"I. c #6B8FC6",
"U. c #6593C2",
"Y. c #6D94C6",
"T. c #669AC1",
"R. c #6D9CC4",
"E. c #6A92C9",
"W. c #7097C6",
"Q. c #739CC6",
"!. c #7096CA",
"~. c #739CC9",
"^. c #5FA0C2",
"/. c #67A4C3",
"(. c #6CA5C2",
"). c #6DAAC1",
"_. c #71A5C5",
"`. c #70AAC3",
"'. c #76A2C9",
"]. c #79A4CA",
"[. c #7DA8CC",
"{. c #71B7C3",
"}. c #72A6D0",
"|. c #8DBDBB",
" X c #89BDB4",
".X c #90BEBE",
"XX c #84C79F",
"oX c #86C6A4",
"OX c #87C4A9",
"+X c #8AC3AD",
"@X c #8BCAAC",
"#X c #89CBA7",
"$X c #8FD3AD",
"%X c #8DC3B3",
"&X c #8EC4B7",
"*X c #91C5BC",
"=X c #90CBB6",
"-X c #91BBC4",
";X c #94BBCC",
":X c #93B7CC",
">X c #95B6D2",
",X c #97BAD3",
"<X c #98BAD6",
"1X c #97B4D8",
"2X c #9ABAD9",
"3X c #9DBBE0",
"4X c #93C2C2",
"5X c #97C4C9",
"6X c None",
/* pixels */
"6X6X6X6X6X6X6X6X6X6X6X6X6X6X6X6X6X6X6X6X6X6X6X6X6X6X6X6X6X6X6X6X6X6X6X6X6X6X6X6X6X6X6X6X6X6X6X6X6X6X6X6X6X6X6X6X6X6X6X6X6X6X6X6X",
"6X6X6X6X6X6X6X6X6X6X6X6X6X6X6X6X6X6X6X6X6X6X6X6X6X6X6X6X6X6X6X6X6X6X6X6X6X6X6X6X6X6X6X6X6X6X6X6X6X6X6X6X6X6X6X6X6X6X6X6X6X6X6X6X",
"6X6X6X6X6X6X6X6X6X6X6X6X6X6X6X6X6X6X6X6X6X6X6X6X6X6X6X6X6X6X6XT.6X6X6X6X6X6X6X6X6X6X6X6X6X6X6X6X6X6X6X6X6X6X6X6X6X6X6X6X6X6X6X6X",
"6X6X6X6X6X6X6X6X6X6X6X6X6X6X6X6X6X6X6X6X6X6X6X6X6X6X6X6X6X6X6X}.6X6X6X6X6X6X6X6X6X6X6X6X6X6X6X6X6X6X6X6X6X6X6X6X6X6X6X6X6X6X6X6X",
"6X6X6X6X6X6X6X6X6X6X6X6X6X6X6X6X6X6X6X6X6X6X6X6X6X6X6X6X6X6XE.'.B.6X6X6X6X6X6X6X6X6X6X6X6X6X6X6X6X6X6X6X6X6X6X6X6X6X6X6X6X6X6X6X",
"6X6X6X6X6X6X6X6X6X6X6X6X6X6X6X6X6X6X6X6X6X6X6X6X6X6X6X6X6XP.!.R.).6X6X6X6X6X6X6X6X6X6X6X6X6X6X6X6X6X6X6X6X6X6X6X6X6X6X6X6X6X6X6X",
"6X6X6X6X6X6X6X6X6X6X6X6X6X6X6X6X6X6X6X6X6X6X6X6X6X6X6X6X6XE.I.R.`.K.6X6X6X6X6X6X6X6X6X6X6X6X6X6X6X6X6X6X6X6X6X6X6X6X6X6X6X6X6X6X",
"6X6X6X6X6X6X6X6X6X6X6X6X6X6X6X6X6X6X6X6X6X6X6X6X6X6X6X6XI.W.I.R.{./.f.6X6X( 6X6X6X6X6X6X6X6X6X6X6X6X6X6X6X6X6X6X6X6X6X6X6X6X6X6X",
"6X6X6X6X6X6X6X6X6X6X6X6X6X6X6X6X6X6X6X6X6X6X6X6X6X6X6X&.~.I.I._.`.).K.6X6X6Xt 6X6X6X6X6X6X6X6X6X6X6X6X6X6X6X6X6X6X6X6X6X6X6X6X6X",
"6X6X6X6X6X6X6X6X6X6X6X6X6X6X6X6X6X6X6X6X6X6X6X6X6X6X6XI.W.W.I.x.`._.^.f.6X6X) 6X6X6X6X6X6X6X6X6X6X6X6X6X6X6X6X6X6X6X6X6X6X6X6X6X",
"6X6X6X6X6X6X6X6X6X6X6X6X6X6X6X6X6X6X6X6X6X6X6X6X6X6XJ.~.W.I.I.R.`.`./.k.6X6X6Xt 6X6X6X6X6X6X6X6X6X6X6X6X6X6X6X6X6X6X6X6X6X6X6X6X",
"6X6X6X6X6X6X6X6X6X6X6X6X6X6X6X6X6X6X6X6X6X6X6X6X6X6XW.W.W.I.I.R.`.`.(.k.f.6X6X_ 6X6X6X6X6X6X6X6X6X6X6X6X6X6X6X6X6X6X6X6X6X6X6X6X",
"6X6X6X6X6X6X6X6X6X6X6X6X6X6X6X6X6X6X6X6X6X6X6X6X6Xd.~.W.W.I.I.R.`.`._.T.K.6X6X6XP 6X6X6X6X6X6X6X6X6X6X6X6X6X6X6X6X6X6X6X6X6X6X6X",
"6X6X6X6X6X6X6X6X6X6X6X6X6X6X6X6X6X6X6X6X6X6X6X6X&.~.W.W.W.I.I.Q.).`.`.(.h.f.6X6X' e 6X6X6X6X6X6X6X6X6X6X6X6X6X6X6X6X6X6X6X6X6X6X",
"6X6X6X6X6X6X6X6X6X6X6X6X6X6X6X6X6X6X6X6X6X6X6X6XY.~.W.W.Y.Y.I.Q.`.`._.(.j.K.h.6X6X( 6X6X6X6X6X6X6X6X6X6X6X6X6X6X6X6X6X6X6X6X6X6X",
"6X6X6X6X6X6X6X6X6X6X6X6X6X6X6X6X6X6X6X6X6X6X6Xa.~.W.W.W.Y.Y.I.R.)._._._.T.h.K.6X6X[ y 6X6X6X6X6X6X6X6X6X6X6X6X6X6X6X6X6X6X6X6X6X",
"6X6X6X6X6X6X6X6X6X6X6X6X6X6X6X6X6X6X6X6X6X6X#.W.~.W.W.Y.W.Y.I.(.Z./._._.(.h.K.s.6X6X) 3 6X6X6X6X6X6X6X6X6X6X6X6X6X6X6X6X6X6X6X6X",
"6X6X6X6X6X6X6X6X6X6X6X6X6X6X6X6X6X6X6X6X6X6XP.'.Q.Q.W.W.Y.Y.I.N.D.Z.B.(._.j.h.L.6X6X| P 6X6X6X6X6X6X6X6X6X6X6X6X6X6X6X6X6X6X6X6X",
"6X6X6X6X6X6X6X6X6X6X6X6X6X6X6X6X6X6X6X6X6X$.Q.Q.Q.W.W.W.W.Y.I.N.D.C.Z.n._.T.h.s.s.6X6X' q 6X6X6X6X6X6X6X6X6X6X6X6X6X6X6X6X6X6X6X",
"6X6X6X6X6X6X6X6X6X6X6X6X6X6X6X6X6X6X6X6X/ Y.'.Q.W.W.W.Y.Y.I.I./.D.D.C.M.b.(.h.s.L.6X6X| ) 6X6X6X6X6X6X6X6X6X6X6X6X6X6X6X6X6X6X6X",
"6X6X6X6X6X6X6X6X6X6X6X6X6X6X6X6X6X6X6X6Xp.'.Q.Q.W.W.W.R.Y.P.P./.D.C.C.C.M.m.k.s.H.s.6X6X{ r 6X6X6X6X6X6X6X6X6X6X6X6X6X6X6X6X6X6X",
"6X6X6X6X6X6X6X6X6X6X6X6X6X6X6X6X6X6X6X#.W.'.'.Q.Q.W.W.Y.U.P.P.(.D.C.C.C.V.m.g.f.s.L.s.6X6X` 8 6X6X6X6X6X6X6X6X6X6X6X6X6X6X6X6X6X",
"6X6X6X6X6X6X6X6X6X6X6X6X6X6X6X6X6X6X6Xd.].'.Q.Q.W.R.Y.P.P.P.I.(.D.C.C.C.C.V.b.m.f.H.J.6X6X{ y 6X6X6X6X6X6X6X6X6X6X6X6X6X6X6X6X6X",
"6X6X6X6X6X6X6X6X6X6X6X6X6X6X6X6X6X6X$.~.'.'.Q.Q.Y.U.U.P.E.E.J.B.D.C.C.C.V.V.N.b.g.f.L.p.6X6X' q 6X6X6X6X6X6X6X6X6X6X6X6X6X6X6X6X",
"6X6X6X6X6X6X6X6X6X6X6X6X6X6X6X6X6X/ Y.'.'.Q.Q.Y.U.U.U.E.L.J./ v.D.C.C.C.V.V.V.`.n.g.f.K.6X6X| P 8 6X6X6X6X6X6X6X6X6X6X6X6X6X6X6X",
"6X6X6X6X6X6X6X6X6X6X6X6X6X6X6X6X6Xp.].'.'.Q.T.U.U.U.d.&./ ^ ~ v.G.D.C.C.V.V.V.V.).n.f.K.h.6X6X[ q 6X6X6X6X6X6X6X6X6X6X6X6X6X6X6X",
"6X6X6X6X6X6X6X6X6X6X6X6X6X6X6X6X! Q.].'.R.U.U.U.d.%./ / / / / 3.Z.Z.G.G.C.C.`.V.`.).j.f.K.h.6X} ( 7 6X6X6X6X6X6X6X6X6X6X6X6X6X6X",
"6X6X6X6X6X6X6X6X6X6X6X6X6X6X6X^ d.[.].Q.T.U.s.%./ ^ / / / / / B V i h G 4.B.{.`.{.`.).h.h.K.e._ ' e 6X6X6X6X6X6X6X6X6X6X6X6X6X6X",
"6X6X6X6X6X6X6X6X6X6X6X6X6X6X6X#.].[./.x.p.#.~ / / / / / / ^ / B C Z V 2 @ @ , l 5.c.N.(.K.h.H.s.+.) 7 6X6X6X6X6X6X6X6X6X6X6X6X6X",
"6X6X6X6X6X6X6X6X6X6X6X6X6X6X/ R.].x.z./ ~ / / / / / / / / / ^ M C C m J H 1 @ @ @ * > j ] X.r.p.H.u.t 3 6X6X6X6X6X6X6X6X6X6X6X6X",
"6X6X6X6X6X6X6X6X6X6X6X6X6X/ $.U.z./ ^ / / / / / / / / / / / / B C m M M B H H i : & = = = - > u z ..+.w 6X6X6X6X6X6X6X6X6X6X6X6X",
"6X6X6X6X6X6X6X6X6X6X6X6X! @.#./ ^ / / / / / / / / / / / / / / m C A M B H H *.-.*.p > = - ; ; ; ; j | P 7 6X6X6X6X6X6X6X6X6X6X6X",
"6X6X6X6X6X6X6X6X6X6X6X6XO./ @./ #./ / / / / / / / / / / / 6X6X6X6XZ D J M H *.*.-.<.<.l u : ; > > > k ' w 7 6X6X6X6X6X6X6X6X6X6X",
"6X6X6X6X6X6X6X6X6X6X6X! ! @.@.@./ / / / / / / / / / / 6X6X6X6X6X6X6X6XJ H H H *.-.<.<.2.>.] j 2 > d j | P 7 6X6X6X6X6X6X6X6X6X6X",
"6X6X6X6X6X6X6X6X6X6X! ! O.O./ @./ #./ / / / / / / / 6X6X6X6X6X6X6X6X6X6X6X=.=.*.-.-.1.1.0.0.0.,.j d g k { e 7 6X6X6X6X6X6X6X6X6X",
"6X6X6X6X6X6X6X6X6X6XQ ! ! ! ! @./ / / / / / / / 6X6X6X6X6X6X6X6X6X6X6X6X6X6X6X*.<.<.<.2.>.0.0.i.i.6Xg j  .) 7 6X6X6X6X6X6X6X6X6X",
"6X6X6X6X6X6X6X6X6XW W O.Q ! ! O.@.@./ @./ / 6X6X6X6X6X6X6X6X6X6X6X6X6X6X6X6X6X6X6X<.3.2.>.>.q.q.i.6X6X6X}  .y 3 6X6X6X6X6X6X6X6X",
"6X6X6X6X6X6X6X6XE E E W Q O.! ! / @./ / / 6X6X6X6X6X6X6X6X6X6X6X6X6X6X6X6X6X6X6X6X6X6X2.t.t.q.q.i.u.6X6X6X .' q 7 6X6X6X6X6X6X6X",
"6X6X6X6X6X6X6X6XE E E W W Q Q O.O./ #.6X6X6X6X6X6X6X6X6X6X6X6X6X6X6X6X6X6X6X6X6X6X6X6X6X6Xq.y.e.i.s.6X6X6X{ o.t 7 6X6X6X6X6X6X6X",
"6X6X6X6X6X6X6XU E E E W W Q Q O.O.6X6X6X6X6X6X6X6X6X6X6X6X6X6X6X6X6X6X6X6X6X6X6X6X6X6X6X6X6X6Xe.i.s.p.6X6X6X| [ q 7 6X6X6X6X6X6X",
"6X6X6X6X6X6XU T T E R E E Q Q O.6X6X6X6X6X6X6X6X6X6X6X6X6X6X6X6X6X6X6X6X6X6X6X6X6X6X6X6X6X6X6X6X6Xs.J.p.6X6X6X .( 7 7 6X6X6X6X6X",
"6X6X6X6X6X6XI U U R R E E W 6X6X6X6X6X6X6X6X6X6X6X6X6X6X6X6X6X6X6X6X6X6X6X6X6X6X6X6X6X6X6X6X6X6X6X6X6Xp.6X6X6X| | e 7 6X6X6X6X6X",
"6X6X6X6X6XL I I U T R R R 6X6X6X6X6X6X6X6X6X6X6X6X6X6X6X6X6X6X6X6X6X6X6X6X6X6X6X6X6X6X6X6X6X6X6X6X6X6X6X6X6X6X6X .) 7 7 6X6X6X6X",
"6X6X6X6X0 0 L I U U U 6X6X6X6X6X6X6X6X6X6X6X6X6X6X6X6X6X6X6X6X6X6X6X6X6X6X6X6X6X6X6X6X6X6X6X6X6X6X6X6X6X6X6X6X6X|  .t 7 7 6X6X6X",
"6X6X6X6X9 0 L L L r 6X6X6X6X6X6X6X6X6X6X6X6X6X6X6X6X6X6X6X6X6X6X6X6X6X6X6X6X6X6X6X6X6X6X6X6X6X6X6X6X6X6X6X6X6X6X6X .' q 7 6X6X6X",
"6X6X6X5 9 0 0 9 9 6X6X6X6X6X6X6X6X6X6X6X6X6X6X6X6X6X6X6X6X6X6X6X6X6X6X6X6X6X6X6X6X6X6X6X6X6X6X6X6X6X6X6X6X6X6X6X6X6X6Xt w 7 6X6X",
"6X6X4 4 5 5 6 6X6X6X6X6X6X6X6X6X6X6X6X6X6X6X6X6X6X6X6X6X6X6X6X6X6X6X6X6X6X6X6X6X6X6X6X6X6X6X6X6X6X6X6X6X6X6X6X6X6X6X6X6X7 q 6X6X",
"6X6X# 4 # 6X6X6X6X6X6X6X6X6X6X6X6X6X6X6X6X6X6X6X6X6X6X6X6X6X6X6X6X6X6X6X6X6X6X6X6X6X6X6X6X6X6X6X6X6X6X6X6X6X6X6X6X6X6X6X6X6X7 6X",
"6X# # 6X6X6X6X6X6X6X6X6X6X6X6X6X6X6X6X6X6X6X6X6X6X6X6X6X6X6X6X6X6X6X6X6X6X6X6X6X6X6X6X6X6X6X6X6X6X6X6X6X6X6X6X6X6X6X6X6X6X6X6X6X",
"6X6X6X6X6XoXoXOXOX%X%X X|.|.|.-X-X;X>X6X6X6X6X6X6X6X*X|.-X;X;X6X6X6X6X6X6X6X6X6X6X6X6X6X6X6X6X6X6X6X6X6X6X6X6X6X6X6X6X6X6X6X6X6X",
"6X6X6X6XXX$X#X+X+X%X%X&X*X*X-X-X;X;X,X2X<X6X6X6X%X&X4X4X-X;X<X>X1X6X6X6X6X6X6X6X6X6X6X6Xb 6X6X6X6X6X6X6X6X6X6X6X6X6X6X6X6X6X6X6X",
"6X6X6X6XoX$X#X@X=X=X&X*X|.|.-X-X5X;X;X>X1X2X6X@X=X%X%X4X5X5X:X<X1X6X6X6X6X6X6X6X6X6X6Xx v b 6X6X6X6X6X6X6X6X6X6X6X6X6X6X6X6X6X6X",
"6X6X6X6X6X@XoX@X+X%X X|.|.|.-X-X-X:X:X<X2X1X+X@X X%X&X|.-X-X;X<X6X6X6X6X6X6X6X6X6X6X6Xx b v 6X6X6X6X6X6X6X6X6X6X6X6X6X6X6X6X6X6X",
"6X6X6X6X6X6X6X6X6X6X6X6X|.|.5X6X6X6X6X>X2X-XoXOX+X%X6X6X6X6X6X6X6X6Xv x b v v v 6X6X6X6Xb 6X6X6X6X6Xx x v v v b 6X6X6X6X6X6X6X6X",
"6X6X6X6X6X6X6X6X7.9.S. X|..X5X6X6X6X6X6X1X%X#XOX%X6X6X6X6X6X6X6X6Xb b v v b b b v 6X6Xx x v 6X6X6Xb n v v x x s + 6X6X6X6X6X6X6X",
"6X6X6X6X6X6X6XM J H =.:.8.v.B.6X6X6X6X6X6XoX$X@X+X6X6X6X6X6X6X6Xb b v x 6X6Xc b n b 6Xb b b 6X6Xs s % + O o X     . 6X6X6X6X6X6X",
"6X6X6X6X6X6X6XM J H =.;.-.3.2.6X6X6X6X6X6XK K 9.9.6X6X6X6X6X6X6Xa a s 6X6X6X6X% + O 6XO o o 6X. .     6X6X6X6X      . 6X6X6X6X6X",
"6X6X6X6X6X6X6X6XN H =.*.-.<.2.6X6X6X6X6X6XM Z M B 6X6X6X6X6X6X6X    6X6X6X6X6X6X    6X      6X      6X6X6X6X6X6X      6X6X6X6X6X",
"6X6X6X6X6X6X6X6X6X6X6X6X6X6X6X6X6X6X6X6Xp.-.Z M F =.6X6X6X6X6X.     6X6X6X6X6X6X    6X      6X      6X6X6X6X6X6X      6X6X6X6X6X",
"6X6X6X6X6X6X6X6X6X6X6X6X6X6X6X6X6X6X6Xe.H.u.C D N =.*.6X6X6Xf.<       6X6X6X6X      6X.     6X      6X6X6X6X6X6X      6X6X6X6X6X",
"6X6X6X6XS A Z M B N =.=.-.<.1.>.>.q.i.i.u.J.>.D N *.;.1.>.0.f.w.    .   6X6X        6X      6X      6X6X6X6X6X6X      6X6X6X6X6X",
"6X6X6X6XC A Z M N N =.;.-.<.2.2.0.q.e.i.J.p.6X6XN 6.-.<.2.q.q.s.e                 6X6X      6X      6X6X6X6X6X.       6X6X6X6X6X",
"6X6X6X6XC A D D J H ;.;.;.3.2.t.t.y.i.i.u.6X6X6X6X=.-.3.2.t.e.i.6X6X      .     6X6X6X  .   6X6X    6X6X6X6X6X6X    6X6X6X6X6X6X",
"6X6X6X6X6X6X6X6X6X6X6X6X6X6X6X6X6X6X6X6X6X6X6X6X6X6X6X6X6X6X6X6X6X6X6X6X6X6X6X6X6X6X6X6X6X6X6X6X6X6X6X6X6X6X6X6X6X6X6X6X6X6X6X6X"
};
