/* XPM */
static char *_2[] = {
/* columns rows colors chars-per-pixel */
"32 32 158 2 ",
"   c #060204",
".  c #0D090C",
"X  c #0B060A",
"o  c #110D10",
"O  c #181417",
"+  c #161E2B",
"@  c #221E21",
"#  c #3E3A3C",
"$  c #2B3E62",
"%  c #385549",
"&  c #355347",
"*  c #3D5F59",
"=  c #3D5E55",
"-  c #37665C",
";  c #376B5A",
":  c #3D635D",
">  c #2A4C71",
",  c #354E79",
"<  c #314B75",
"1  c #2E5073",
"2  c #305176",
"3  c #385F77",
"4  c #36567A",
"5  c #3B5B7B",
"6  c #454245",
"7  c #575456",
"8  c #5A575A",
"9  c #5F5C5D",
"0  c #416054",
"q  c #496B6D",
"w  c #416F71",
"e  c #44617F",
"r  c #4C6F7F",
"t  c #4B7375",
"y  c #666465",
"u  c #696667",
"i  c #696668",
"p  c #6C696A",
"a  c #368763",
"s  c #3D8675",
"d  c #3E9B77",
"f  c #3F9C7D",
"g  c #37A264",
"h  c #39A569",
"j  c #3EA376",
"k  c #419C7C",
"l  c #42A875",
"z  c #40B178",
"x  c #39598D",
"c  c #395883",
"v  c #3B5F98",
"b  c #3A5C93",
"n  c #3C629D",
"m  c #3E65A2",
"M  c #3E69A7",
"N  c #3F6AAB",
"B  c #3A66B5",
"V  c #3C6BB2",
"C  c #436284",
"Z  c #466688",
"A  c #4C6886",
"S  c #516F85",
"D  c #516F8D",
"F  c #56728E",
"G  c #59738F",
"H  c #517590",
"J  c #4065A2",
"K  c #4E76A1",
"L  c #406CB0",
"P  c #4977B6",
"I  c #4A79B7",
"U  c #4D7BB9",
"Y  c #517ABD",
"T  c #39878A",
"R  c #3F9782",
"E  c #45878C",
"W  c #439A87",
"Q  c #41958F",
"!  c #449D8A",
"~  c #418998",
"^  c #448E94",
"/  c #568491",
"(  c #469691",
")  c #4A9E97",
"_  c #4A949B",
"`  c #5C9B9A",
"'  c #42A680",
"]  c #4FA18C",
"[  c #45A28B",
"{  c #53A38C",
"}  c #4F8CAD",
"|  c #4D8BA3",
" . c #5289A8",
".. c #4D95A3",
"X. c #5194AF",
"o. c #5099AA",
"O. c #4F88B0",
"+. c #5289B4",
"@. c #5483BB",
"#. c #538CBC",
"$. c #5D8CBE",
"%. c #5286B4",
"&. c #5493BC",
"*. c #5798BB",
"=. c #5F9DBF",
"-. c #5392B5",
";. c #608CBF",
":. c #5CA6B7",
">. c #67ACA7",
",. c #67A7AE",
"<. c #6DA7AC",
"1. c #65A0BF",
"2. c #64B0B8",
"3. c #6DB3BD",
"4. c #6EBCBA",
"5. c #70BCBE",
"6. c #71C2BD",
"7. c #568BC1",
"8. c #5893C3",
"9. c #5698C0",
"0. c #5A98C0",
"q. c #648DC3",
"w. c #688EC5",
"e. c #6793C2",
"r. c #6D94C5",
"t. c #669BC2",
"y. c #6C9AC4",
"u. c #6D9AC8",
"i. c #6D95C9",
"p. c #739BC7",
"a. c #7096CA",
"s. c #729CCB",
"d. c #5EA0C2",
"f. c #66A5C0",
"g. c #6DA6C5",
"h. c #71ABC4",
"j. c #77A1CA",
"k. c #78A2CA",
"l. c #70ADC9",
"z. c #7BA8CD",
"x. c #85BFAB",
"c. c #8DBEB9",
"v. c #84C79F",
"b. c #84CAA7",
"n. c #89C4AC",
"m. c #8DCFAC",
"M. c #8CC4B3",
"N. c #91C1BD",
"B. c #90D4B2",
"V. c #8EBAC0",
"C. c #91BCC0",
"Z. c #94BDC9",
"A. c #95B4D3",
"S. c #92C5C0",
"D. c #96CAC6",
"F. c #96C2CB",
"G. c #9FC4DD",
"H. c None",
/* pixels */
"H.H.H.H.H.H.H.H.H.H.H.H.H.H.H.H.H.H.H.H.H.H.H.H.H.H.H.H.H.H.H.H.",
"H.H.H.H.H.H.H.H.H.H.H.H.H.H.H.H.H.H.H.H.H.H.H.H.H.H.H.H.H.H.H.H.",
"H.H.H.H.H.H.H.H.H.H.H.H.H.H.H.u.H.H.H.H.H.H.H.H.H.H.H.H.H.H.H.H.",
"H.H.H.H.H.H.H.H.H.H.H.H.H.H.w.s.f.H.H.H.H.H.H.H.H.H.H.H.H.H.H.H.",
"H.H.H.H.H.H.H.H.H.H.H.H.H.H.r.r.l.*.H.H.H.H.H.H.H.H.H.H.H.H.H.H.",
"H.H.H.H.H.H.H.H.H.H.H.H.H.e.a.y.h.0.H.H.H.H.H.H.H.H.H.H.H.H.H.H.",
"H.H.H.H.H.H.H.H.H.H.H.H.q.a.r.r.h.g.&.H.H.H.H.H.H.H.H.H.H.H.H.H.",
"H.H.H.H.H.H.H.H.H.H.H.H.u.a.r.u.h.h.0.H.C H.H.H.H.H.H.H.H.H.H.H.",
"H.H.H.H.H.H.H.H.H.H.H.q.s.a.r.y.2.g.t.#.H.5 H.H.H.H.H.H.H.H.H.H.",
"H.H.H.H.H.H.H.H.H.H.H.p.p.r.r.y.6.2.f.0.H.A H.H.H.H.H.H.H.H.H.H.",
"H.H.H.H.H.H.H.H.H.H.e.j.p.r.w.y.4.4.:.*.#.H.e H.H.H.H.H.H.H.H.H.",
"H.H.H.H.H.H.H.H.H.@.j.p.i.e.w.t.4.4.3.:.9.7.H.4 H.H.H.H.H.H.H.H.",
"H.H.H.H.H.H.H.H.H.p.j.u.e.q.U X.6.4.h.3.:.&.H.C H.H.H.H.H.H.H.H.",
"H.H.H.H.H.H.H.H.$.z.t.$.U V B ~ { ` >.h.h.d.&.H 5 H.H.H.H.H.H.H.",
"H.H.H.H.H.H.H.U y.$.P V V V B T g a ; : t /  .+.K > H.H.H.H.H.H.",
"H.H.H.H.H.H.H.U P V V V V V B T h j f s - & % * S C H.H.H.H.H.H.",
"H.H.H.H.H.H.N V V V V V V V H.H.H.j k ! ( E w = 0 S 1 H.H.H.H.H.",
"H.H.H.H.H.M N N L V V V H.H.H.H.H.H.H.! ( _ | | q q Z H.H.H.H.H.",
"H.H.H.H.H.m M L L V H.H.H.H.H.H.H.H.H.H.H._ ..-.+.H.F 4 H.H.H.H.",
"H.H.H.H.v n m L L H.H.H.H.H.H.H.H.H.H.H.H.H.H.} #.H.H.D > H.H.H.",
"H.H.H.x b v m J H.H.H.H.H.H.H.H.H.H.H.H.H.H.H.H.H.@.H.G c H.H.H.",
"H.H.H.c x b H.H.H.H.H.H.H.H.H.H.H.H.H.H.H.H.H.H.H.H.H.H.F 1 H.H.",
"H.H.< , 4 H.H.H.H.H.H.H.H.H.H.H.H.H.H.H.H.H.H.H.H.H.H.H.H.5 > H.",
"H.$ $ H.H.H.H.H.H.H.H.H.H.H.H.H.H.H.H.H.H.H.H.H.H.H.H.H.H.H.H.H.",
"H.H.H.m.n.M.c.V.Z.H.H.H.H.H.Z.H.H.H.H.H.H.H.H.H.H.H.H.H.H.H.H.H.",
"H.H.b.B.M.M.N.F.F.G.A.H.M.D.F.G.H.H.H.H.H.y u H.H.H.H.H.H.H.H.H.",
"H.H.H.H.H.H.N.C.H.H.A.n.M.H.H.H.H.u u u H.H.i H.H.p p u H.H.H.H.",
"H.H.H.H.k { >.<.H.H.H.b.n.H.H.H.y u u y 9 8 7 H.6 6 # @ . H.H.H.",
"H.H.H.H.d R Q ^ H.H.H.l k H.H.H.O H.H.H.o . X X   H.H.H.  H.H.H.",
"H.H.H.H.H.H.H.H.H.+.%.d k H.H.3   H.H.            H.H.H.  H.H.H.",
"H.H.g z ' [ ) ..X.&.@.H.f ) o.+.+       H.        H.H.H.  H.H.H.",
"H.H.H.H.H.H.H.H.H.H.H.H.H.H.H.H.H.H.H.H.H.H.H.H.H.H.H.H.H.H.H.H."
};
