/* XPM */
static char *_dcoin32[] = {
/* columns rows colors chars-per-pixel */
"32 32 127 2 ",
"   c #05987E",
".  c #0C9E7F",
"X  c #02A66D",
"o  c #05A473",
"O  c #04AA74",
"+  c #0AA17A",
"@  c #06A878",
"#  c #09A97D",
"$  c #0A9685",
"%  c #0D9D81",
"&  c #0E938C",
"*  c #0F9888",
"=  c #119C86",
"-  c #12978C",
";  c #139A8C",
":  c #0F8E92",
">  c #148F96",
",  c #13859F",
"<  c #15889E",
"1  c #1B8E9D",
"2  c #169691",
"3  c #1A9596",
"4  c #179A91",
"5  c #199C97",
"6  c #1D939B",
"7  c #1A9B98",
"8  c #209B95",
"9  c #23969D",
"0  c #0CA382",
"q  c #0FA489",
"w  c #12A28C",
"e  c #27A78F",
"r  c #29A593",
"t  c #2DA19B",
"y  c #32A39E",
"u  c #37AB9A",
"i  c #1785A3",
"p  c #1D8CA2",
"a  c #1F88A9",
"s  c #1F94A0",
"d  c #228EA5",
"f  c #2286AD",
"g  c #258CAB",
"h  c #298BAF",
"j  c #2190A2",
"k  c #2690AC",
"l  c #339DA5",
"z  c #3293AE",
"x  c #379BAB",
"c  c #3B9BAF",
"v  c #2684B4",
"b  c #2985B4",
"n  c #2688B0",
"m  c #2C89B4",
"M  c #2F87B8",
"N  c #2E8CBB",
"B  c #3185BC",
"V  c #3089BC",
"C  c #2992B3",
"Z  c #3592B3",
"A  c #3895B3",
"S  c #3E91BC",
"D  c #439DB4",
"F  c #4D9DBE",
"G  c #41A0AE",
"H  c #4DADAC",
"J  c #5CB9AE",
"K  c #53B3AB",
"L  c #45A1B1",
"P  c #4CA4B4",
"I  c #54AAB6",
"U  c #52A2BD",
"Y  c #5BABBC",
"T  c #5CB0B8",
"R  c #60ADBF",
"E  c #66B6BB",
"W  c #68BAB9",
"Q  c #68C1B1",
"!  c #76C1BE",
"~  c #7AC6BE",
"^  c #7AC8BC",
"/  c #3384C1",
"(  c #338AC4",
")  c #358AC8",
"_  c #56A1C1",
"`  c #5DA4C5",
"'  c #5EA8C2",
"]  c #70AECD",
"[  c #6BB1C5",
"{  c #6FB2C8",
"}  c #76B8C7",
"|  c #7BBFC6",
" . c #71B3C8",
".. c #7BB9CB",
"X. c #7EC5C2",
"o. c #81CABF",
"O. c #80BECB",
"+. c #82C3C7",
"@. c #84C9C3",
"#. c #88CDC2",
"$. c #87C7C8",
"%. c #89C1D0",
"&. c #98CAD5",
"*. c #9CC7DD",
"=. c #9DD0D4",
"-. c #A6D6D6",
";. c #A9D8D7",
":. c #A5D2D9",
">. c #AEDAD9",
",. c #B1DADC",
"<. c #B9E2DC",
"1. c #AED2E1",
"2. c #C7E6E4",
"3. c #D1E5EF",
"4. c #D5ECEB",
"5. c #DBEEEF",
"6. c #DAEBF2",
"7. c #E2EFF5",
"8. c #E9F4F6",
"9. c #EEF8F7",
"0. c #EEF6F8",
"q. c #EFF8F8",
"w. c #F0F8F7",
"e. c #F0F7F9",
"r. c #F3FAFA",
"t. c #FEFFFF",
"y. c None",
/* pixels */
"y.y.y.y.y.y.y.y.y.y.y.y.y.y.y.y.y.y.y.y.y.y.y.y.y.y.y.y.y.y.y.y.",
"y.y.y.y.y.y.y.y.y.y.y.y.k k k j 9 6 3 3 y.y.y.y.y.y.y.y.y.y.y.y.",
"y.y.y.y.y.y.y.y.y.m m C k j j j 9 6 6 5 5 4 ; y.y.y.y.y.y.y.y.y.",
"y.y.y.y.y.y.y.M M C h g g k j j 6 6 3 3 4 4 w = = y.y.y.y.y.y.y.",
"y.y.y.y.y.y.M N M h h h g d d d s 6 3 3 2 - ; = w 0 y.y.y.y.y.y.",
"y.y.y.y.y.V ( M m h h g g d j 1 6 3 3 2 2 - * % % q # y.y.y.y.y.",
"y.y.y.y.N ( M m m h h f z x x x x l l t t t r r e . 0 + y.y.y.y.",
"y.y.y.B ( M M M m h f U 5.e.e.e.0.q.9.9.w.q.w.9.Q . + # o y.y.y.",
"y.y.y./ B B M M m f U 8.t.t.t.t.t.t.t.t.t.t.t.^   . + + o y.y.y.",
"y.y./ ( B M M m n U 8.t.t.t.t.t.t.t.t.t.t.t.^ $ % % + + @ o y.y.",
"y.y./ B B B M M b F ` ' Y Y Y I =.t.t.t.t.~ $ = = % + + o O y.y.",
"y.y.) / B M M m m h f f f 1 , d | +.$.-.! & ; = = + + + o O X y.",
"y./ ) B B B M m m h h g g p Y :.,.,.-.X.y & ; = = . . + + O X y.",
"y./ / / B B M M m m h g d R e.t.t.t.t.t.9.@.* % = . + o o o X y.",
"y./ / B B M M m m m h g [ t.t.t.t.t.t.t.t.t.o.$ % + + + o o X y.",
"y./ / B B B M M m h g Z O.} Y I I E =.e.t.t.r.u . = + + o o X y.",
"y./ / / B M M M m b f a i , < p 3 > > H w.t.t.#.  % + + o o X y.",
"y./ / B B M M M b Z U { %.&.c 1 6 6 3 : -.t.t.<.. . + + o X X y.",
"y./ B B B B M v ' 7.t.t.t.O.d 9 6 6 3 & @.t.t.2.% . + + o o X y.",
"y./ ) B B M B ( 7.t.t.t.} p d d 9 1 3 & >.t.t.<.$ . + + o O X y.",
"y./ ) B M M v *.t.t.t...i p p 1 < > 3 W t.t.t.o.  % + + o O X y.",
"y.y./ / / M M 6.t.t.e. .U P P P Y +.2.t.t.t.8.r % % + + + X y.y.",
"y.y.B ) B M M 3.t.t.t.t.t.t.t.t.t.t.t.t.t.r.J $ = . + + o o y.y.",
"y.y.y./ B M v ] t.t.t.t.t.t.t.t.t.t.t.t.4.K * = = . + + O y.y.y.",
"y.y.y.B ) V M b ` 1.6.q.r.t.t.r.e.5.,.W 8 - ; = % + + # o y.y.y.",
"y.y.y.y.B ( M M n f h A c L L G l 9 > - - ; ; = = = 0 + y.y.y.y.",
"y.y.y.y.y.V V M m m h g g d p 1 1 3 3 3 3 ; 4 = 0 q + y.y.y.y.y.",
"y.y.y.y.y.y.V C m m h g g d d j 6 9 3 3 3 - = = q + y.y.y.y.y.y.",
"y.y.y.y.y.y.y.V m C m g d d j j j 6 3 3 4 - w = = y.y.y.y.y.y.y.",
"y.y.y.y.y.y.y.y.y.m m C h k d j 6 3 3 3 5 4 4 y.y.y.y.y.y.y.y.y.",
"y.y.y.y.y.y.y.y.y.y.y.h k k d j 6 9 6 3 4 y.y.y.y.y.y.y.y.y.y.y.",
"y.y.y.y.y.y.y.y.y.y.y.y.y.y.y.y.y.y.y.y.y.y.y.y.y.y.y.y.y.y.y.y."
};
