/* XPM */
static char *_6[] = {
/* columns rows colors chars-per-pixel */
"16 16 73 1 ",
"  c #070205",
". c #080507",
"X c #0E0D13",
"o c #322F30",
"O c #3E3B3D",
"+ c #334C6F",
"@ c #38587A",
"# c #3B6B7E",
"$ c #454245",
"% c #484548",
"& c #5D5C5D",
"* c #635F61",
"= c #486673",
"- c #477477",
"; c #44747B",
": c #3A986B",
"> c #3FA07C",
", c #428475",
"< c #39598D",
"1 c #3D629D",
"2 c #3A7B9A",
"3 c #3F67A6",
"4 c #3F6BAD",
"5 c #3F6BAE",
"6 c #3A67B4",
"7 c #3B6AB2",
"8 c #3D6AB1",
"9 c #436080",
"0 c #406382",
"q c #4A7485",
"w c #4C769B",
"e c #4473B5",
"r c #3F9B80",
"t c #458B8C",
"y c #429C85",
"u c #42928D",
"i c #469093",
"p c #50A487",
"a c #4E86AF",
"s c #4F8EAF",
"d c #5386AC",
"f c #5084B0",
"g c #5885BC",
"h c #5986BF",
"j c #5C96BF",
"k c #5E9EBF",
"l c #62ADA7",
"z c #6CAAA6",
"x c #7BB9A5",
"c c #6AABB7",
"v c #65A0BE",
"b c #60A7BF",
"n c #6DBABB",
"m c #6693C1",
"M c #6994C2",
"N c #6A91C5",
"B c #6898C3",
"V c #6D99C4",
"C c #6F99C6",
"Z c #6E98C7",
"A c #6F9CC8",
"S c #719BCB",
"D c #729ACA",
"F c #729BCB",
"G c #6CA6C6",
"H c #6CB0C1",
"J c #91BFBE",
"K c #8CC1B3",
"L c #94CEB7",
"P c #93BBCB",
"I c #94B8CB",
"U c #94BACC",
"Y c None",
/* pixels */
"YYYYYYYYYYYYYYYY",
"YYYYYYYMYYYYYYYY",
"YYYYYYYCvYYYYYYY",
"YYYYYYNSGdYYYYYY",
"YYYYYYFCHjYYYYYY",
"YYYYYCFBnbfYYYYY",
"YYYYmAgalckwYYYY",
"YYYYge62:,;q0YYY",
"YYY587YYYyt;=YYY",
"YY135YYYYYYsY9YY",
"YY<YYYYYYYYYYY@Y",
"Y+YYYYYYYYYYYYYY",
"YYLJUIKPYYYYYYYY",
"YYpzYxYY&*%O$oYY",
"YY>uYiy#XY. YYYY",
"YYYYYYYYYYYYYYYY"
};
