/* XPM */
static char *_dcoin16[] = {
/* columns rows colors chars-per-pixel */
"16 16 139 2 ",
"   c #059A7C",
".  c #069B7D",
"X  c #079B7D",
"o  c #099C7E",
"O  c #0C9D7F",
"+  c #05A471",
"@  c #04A671",
"#  c #04A672",
"$  c #04AA74",
"%  c #07A078",
"&  c #08A179",
"*  c #09A179",
"=  c #09A47A",
"-  c #09A47B",
";  c #08A87D",
":  c #09A97E",
">  c #0C9E80",
",  c #0D9E80",
"<  c #0C9F81",
"1  c #0A9884",
"2  c #0C9885",
"3  c #0E978E",
"4  c #0A9E89",
"5  c #109A86",
"6  c #11968C",
"7  c #169D8A",
"8  c #128D97",
"9  c #158E98",
"0  c #168E99",
"q  c #198C9E",
"w  c #1A8C9E",
"e  c #119191",
"r  c #169393",
"t  c #199595",
"y  c #1A9696",
"u  c #1A9797",
"i  c #169A91",
"p  c #179A91",
"a  c #169B91",
"s  c #0EA082",
"d  c #0EA586",
"f  c #13A28E",
"g  c #1CAB8D",
"h  c #1B8DA0",
"j  c #1C89A5",
"k  c #1E8AA6",
"l  c #1F96A1",
"z  c #1F97A2",
"x  c #2087AB",
"c  c #258EAA",
"v  c #258FAA",
"b  c #228AAE",
"n  c #2489AC",
"m  c #2A8CAF",
"M  c #2390A2",
"N  c #2394A7",
"B  c #2395A8",
"V  c #3093AD",
"C  c #2C86B7",
"Z  c #2D87B7",
"A  c #2A88B2",
"S  c #2B89B3",
"D  c #2D8AB3",
"F  c #298DB0",
"G  c #288DB1",
"H  c #298DB1",
"J  c #2F8BB4",
"K  c #2D86B8",
"L  c #2E87B8",
"P  c #2F87B8",
"I  c #2C84BD",
"U  c #2E89BA",
"Y  c #2F89BA",
"T  c #2B8EBA",
"R  c #2E8FBB",
"E  c #2D8BBF",
"W  c #348EB6",
"Q  c #3085BC",
"!  c #3185BC",
"~  c #3384BF",
"^  c #34A1A1",
"/  c #3CA5A5",
"(  c #4295BB",
")  c #5AB6AF",
"_  c #57B8AA",
"`  c #4CA5B4",
"'  c #4DA2B8",
"]  c #4FA0BD",
"[  c #52A8B7",
"{  c #55A6BB",
"}  c #5CB1B7",
"|  c #6AB7BD",
" . c #6DBFB9",
".. c #6FBCBC",
"X. c #6AC0B4",
"o. c #7CC5BF",
"O. c #7FC9BE",
"+. c #2F89C3",
"@. c #3385C1",
"#. c #3288C0",
"$. c #318DC0",
"%. c #338BC4",
"&. c #3588C5",
"*. c #4E99C2",
"=. c #5CA7C2",
"-. c #63ADC0",
";. c #62A4CA",
":. c #6CB2C4",
">. c #6CB0C8",
",. c #72BBC1",
"<. c #75B9C5",
"1. c #7CBBCB",
"2. c #7DBEC8",
"3. c #7EBBCC",
"4. c #84BFCE",
"5. c #89CEC3",
"6. c #9CD3CF",
"7. c #A4CDDD",
"8. c #ADD6DD",
"9. c #AFDADA",
"0. c #B0D9DD",
"q. c #B3DADD",
"w. c #B1D8DE",
"e. c #B6E1DA",
"r. c #B5D5E5",
"t. c #C2E3E3",
"y. c #C6E8E2",
"u. c #CDE5EC",
"i. c #D3EAEB",
"p. c #D5EAEC",
"a. c #DFF1F0",
"s. c #E8F2F7",
"d. c #E8F4F4",
"f. c #EDF7F7",
"g. c #F4F9FB",
"h. c #FCFEFD",
"j. c #FDFEFE",
"k. c white",
"l. c None",
/* pixels */
"l.l.l.l.l.l.l.l.l.l.l.l.l.l.l.l.",
"l.l.l.l.l.F v B l y p l.l.l.l.l.",
"l.l.l.Y R F k w 9 e 3 4 < l.l.l.",
"l.l.Q $.S F :.<.,... .X.g % l.l.",
"l.l.%.K J 7.h.h.h.h.h.5.< ; l.l.",
"l.Q @.K W =.{ [ q.p.o.1 O - + l.",
"l.@.Q J S k V 8.p.t.) 2 < * + l.",
"l.&.Q ! S n 3.r.q.d.h._ X * $ l.",
"l.&.Q K Z *.-.M 8 ^ d.e.X * $ l.",
"l.@.Q K r.g.5.h 9 y d.y.o % + l.",
"l.@.I ;.h.u.' ` } q.h.O.. $ + l.",
"l.l.%.*.s.h.h.h.h.h.6.7 o d l.l.",
"l.l.Q E ( >.1.2.| / 6 5 d * l.l.",
"l.l.l.Y R b j q 9 r p f s l.l.l.",
"l.l.l.l.l.F N B N u a l.l.l.l.l.",
"l.l.l.l.l.l.l.l.l.l.l.l.l.l.l.l."
};
