/* XPM */
static char *_dcoin64[] = {
/* columns rows colors chars-per-pixel */
"64 64 164 2 ",
"   c #06987F",
".  c #0C9E7E",
"X  c #02A66D",
"o  c #02A96F",
"O  c #06A374",
"+  c #08A377",
"@  c #03AB73",
"#  c #06A778",
"$  c #09A17A",
"%  c #07A97A",
"&  c #09A87C",
"*  c #088F8B",
"=  c #079781",
"-  c #0A9684",
";  c #079880",
":  c #0E9D82",
">  c #0D948B",
",  c #109C85",
"<  c #11948E",
"1  c #149A8B",
"2  c #199D8D",
"3  c #138E96",
"4  c #168D9A",
"5  c #198C9E",
"6  c #169591",
"7  c #1A9595",
"8  c #169C91",
"9  c #1A9A94",
"0  c #1D939B",
"q  c #1C9A9C",
"w  c #229E95",
"e  c #269B9B",
"r  c #309F9F",
"t  c #0DA283",
"y  c #0FA488",
"u  c #12A18C",
"i  c #2EA895",
"p  c #2EA09D",
"a  c #32AA97",
"s  c #33A998",
"d  c #1D87A7",
"f  c #1C8AA3",
"g  c #1E86A9",
"h  c #1F88A8",
"j  c #1F95A1",
"k  c #1E99A0",
"l  c #248EA5",
"z  c #2286AD",
"x  c #268CAA",
"c  c #288BAE",
"v  c #2191A2",
"b  c #2996A4",
"n  c #2C9BA1",
"m  c #2593AC",
"M  c #2D91AC",
"N  c #369AAB",
"B  c #3898AF",
"V  c #2685B2",
"C  c #2E87B7",
"Z  c #2C89B3",
"A  c #2F86B9",
"S  c #2E8BBA",
"D  c #308AB6",
"F  c #3285BD",
"G  c #3089BD",
"H  c #2A91B3",
"J  c #3691B4",
"K  c #3C94B7",
"L  c #3E92BA",
"P  c #39A7A1",
"I  c #459EB5",
"U  c #4292BD",
"Y  c #4799BD",
"T  c #4B9EBA",
"R  c #509FBF",
"E  c #45A5AD",
"W  c #43A8A8",
"Q  c #4AABAB",
"!  c #49B2A4",
"~  c #4DB1A9",
"^  c #56B3AF",
"/  c #5CBDAB",
"(  c #45A0B2",
")  c #4BA3B6",
"_  c #4EA8B4",
"`  c #4EA1BA",
"'  c #59AEB7",
"]  c #52A4BB",
"[  c #5CABBD",
"{  c #5CB4B3",
"}  c #5FB0BA",
"|  c #64BFAF",
" . c #62AEBE",
".. c #65BCB3",
"X. c #6ABFB5",
"o. c #63B1BD",
"O. c #6CB7BF",
"+. c #67BAB8",
"@. c #6ABABB",
"#. c #72BEBF",
"$. c #67C0B1",
"%. c #6DC2B4",
"&. c #7CC6BF",
"*. c #3484C2",
"=. c #3489C4",
"-. c #3689C8",
";. c #519FC0",
":. c #55A1C1",
">. c #5AA5C1",
",. c #65ADC3",
"<. c #68AFC4",
"1. c #6EB5C3",
"2. c #71B5C6",
"3. c #75BBC4",
"4. c #7BBEC6",
"5. c #71B4C8",
"6. c #7EBACD",
"7. c #81B7D3",
"8. c #8ABED5",
"9. c #89CBC5",
"0. c #84C2CB",
"q. c #8AC6CD",
"w. c #8CC9CA",
"e. c #9AD3CD",
"r. c #89C1D1",
"t. c #90C5D3",
"y. c #95CAD2",
"u. c #99CED2",
"i. c #97C4DB",
"p. c #98C5DA",
"a. c #9ECBD9",
"s. c #9CD1D1",
"d. c #A2D2D6",
"f. c #A6DAD2",
"g. c #ADD5DD",
"h. c #B6DCDE",
"j. c #B6E0DA",
"k. c #BBE2DD",
"l. c #B6D6E5",
"z. c #BADAE4",
"x. c #BFE4E0",
"c. c #C3DDEA",
"v. c #C3E4E2",
"b. c #CBE7E7",
"n. c #CCE9E5",
"m. c #C6E1EA",
"M. c #CEE6EA",
"N. c #CEE9E8",
"B. c #D1E7ED",
"V. c #D2EAEA",
"C. c #DBEEEE",
"Z. c #D3E6F0",
"A. c #D7E8F1",
"S. c #DDECF2",
"D. c #DFF0F1",
"F. c #E1EFF3",
"G. c #E4F1F4",
"H. c #E9F4F6",
"J. c #EFF8F7",
"K. c #EEF5F9",
"L. c #F0F7F9",
"P. c #F3F9FA",
"I. c #FFFFFF",
"U. c None",
/* pixels */
"U.U.U.U.U.U.U.U.U.U.U.U.U.U.U.U.U.U.U.U.U.U.U.U.U.U.U.U.U.U.U.U.U.U.U.U.U.U.U.U.U.U.U.U.U.U.U.U.U.U.U.U.U.U.U.U.U.U.U.U.U.U.U.U.",
"U.U.U.U.U.U.U.U.U.U.U.U.U.U.U.U.U.U.U.U.U.U.U.U.U.U.U.U.l v v e j 0 0 0 U.U.U.U.U.U.U.U.U.U.U.U.U.U.U.U.U.U.U.U.U.U.U.U.U.U.U.U.",
"U.U.U.U.U.U.U.U.U.U.U.U.U.U.U.U.U.U.U.U.U.U.U.x x l m m m m m v v j j k q q 7 7 8 U.U.U.U.U.U.U.U.U.U.U.U.U.U.U.U.U.U.U.U.U.U.U.",
"U.U.U.U.U.U.U.U.U.U.U.U.U.U.U.U.U.U.U.U.Z m H H m m x l l f e f j 0 0 0 q 0 7 9 q 7 8 8 U.U.U.U.U.U.U.U.U.U.U.U.U.U.U.U.U.U.U.U.",
"U.U.U.U.U.U.U.U.U.U.U.U.U.U.U.U.U.U.S Z D M c x c x l l l v v e v 5 5 0 7 q 7 7 6 1 9 9 8 1 U.U.U.U.U.U.U.U.U.U.U.U.U.U.U.U.U.U.",
"U.U.U.U.U.U.U.U.U.U.U.U.U.U.U.U.Z Z H Z c c c x x x l l l l v 5 v e 7 e 0 7 7 7 7 7 1 1 1 u 1 , U.U.U.U.U.U.U.U.U.U.U.U.U.U.U.U.",
"U.U.U.U.U.U.U.U.U.U.U.U.U.U.U.S G Z Z c c c c x x l l l e l v v 5 e 0 5 e 7 7 7 7 1 8 1 1 1 1 1 y U.U.U.U.U.U.U.U.U.U.U.U.U.U.U.",
"U.U.U.U.U.U.U.U.U.U.U.U.U.A S S Z Z Z Z c c x x x x x m l l v v 0 5 0 7 4 7 7 6 7 1 6 1 1 1 , 1 , y : U.U.U.U.U.U.U.U.U.U.U.U.U.",
"U.U.U.U.U.U.U.U.U.U.U.U.G =.Z Z Z Z Z c c c c M x x l l l l f e v v 0 7 7 7 7 7 7 6 1 1 1 1 , , , , y t U.U.U.U.U.U.U.U.U.U.U.U.",
"U.U.U.U.U.U.U.U.U.U.U.A =.Z Z Z Z Z V V c c c x x x x l v v l v 0 0 e 5 0 7 7 7 7 6 1 6 1 1 , , , , . t t U.U.U.U.U.U.U.U.U.U.U.",
"U.U.U.U.U.U.U.U.U.U.G G C C S C Z Z Z c c c c x x m l l l v v v 5 5 5 7 7 0 7 7 7 6 2 6 1 , 1 , , . . . t & U.U.U.U.U.U.U.U.U.U.",
"U.U.U.U.U.U.U.U.U.G =.C A C C C Z Z Z Z Z c c x x l l l l v f e e e 0 0 0 7 7 7 6 2 6 1 1 1 1 : , , , . . & $ U.U.U.U.U.U.U.U.U.",
"U.U.U.U.U.U.U.U.F =.F A A C C Z Z Z Z c c c c l l h h 5 f 5 5 4 4 4 3 3 3 < < < < < > > - - = =     . . $ $ t $ U.U.U.U.U.U.U.U.",
"U.U.U.U.U.U.U.G =.F A A D C Z C Z Z Z c c c x z I 5.2.2.1.1.1.1.O.1.O.O.O.@.+.+.+.............| | / , . : $ $ & + U.U.U.U.U.U.U.",
"U.U.U.U.U.U.U.*.G F A A D A C Z Z Z Z c c c z ] G.I.I.I.I.I.I.I.I.I.I.I.I.I.I.I.I.I.I.I.I.I.I.I.I.%.. . . $ $ $ & U.U.U.U.U.U.U.",
"U.U.U.U.U.U.G *.F F F A D C A Z Z Z Z Z c z T G.I.I.I.I.I.I.I.I.I.I.I.I.I.I.I.I.I.I.I.I.I.I.I.I.$.  , . $ $ $ $ O O U.U.U.U.U.U.",
"U.U.U.U.U.G -.G F A A F A C C Z Z Z Z c z R G.I.I.I.I.I.I.I.I.I.I.I.I.I.I.I.I.I.I.I.I.I.I.I.I...  : . . . $ . . O O O U.U.U.U.U.",
"U.U.U.U.U.*.F F F F A A A C C C Z Z Z z R H.I.I.I.I.I.I.I.I.I.I.I.I.I.I.I.I.I.I.I.I.I.I.I.P...  , , , . . $ + + + O # U.U.U.U.U.",
"U.U.U.U.F -.*.F F A A A A C C Z Z Z z R F.I.I.I.I.I.I.I.I.I.I.I.I.I.I.I.I.I.I.I.I.I.I.I.I.| - , , : . . $ $ . O + O # X U.U.U.U.",
"U.U.U.U.*.*.F F F F F A A C C C Z V R L.I.I.I.I.I.I.I.I.I.I.I.I.I.I.I.I.I.I.I.I.I.I.I.I.X.- 1 , , , , . $ O   . + O O @ U.U.U.U.",
"U.U.U.*.-.*.F F F A A A C C D C Z V R ,. . .,.,.,.,.<.o.o. .o. .' q.I.I.I.I.I.I.I.I.I...- 1 , , , . . . . $ . + + O O @ X U.U.U.",
"U.U.U.*.*.F F F F F F A D C C Z C C V c z z z g l h f f f 5 5 4 E G.I.I.I.I.I.I.I.I.+.- 1 1 1 , , , , : . $ . + + O O X O U.U.U.",
"U.U.U.-.*.F *.F F A F A C C C Z Z Z Z c c c c c x l l l l v f E M.V.b.b.B.D.L.I.I.X.> 1 1 1 1 , , , . . . $ $ + + + O X @ U.U.U.",
"U.U.*.-.F *.F F F F A A D C C C Z Z V c c c c c x x l l l l 5 b b 4 3 3 3 7 r ..{ < 6 1 1 1 , , : : . . . $ $ $ + O O O @ X U.U.",
"U.U.*.*.*.F F F F F F A A C C Z Z Z Z c c c c l c x l l f N ' 3.0.y.u.u.w.#.Q 7 * < 1 1 1 1 1 , , : : . . . O   + O O X X X U.U.",
"U.U.*.*.F *.*.F F F A A D C C C Z Z Z Z c c c c l x l f ) F.I.I.I.I.I.I.I.I.I.D.u.P > 1 1 1 , 1 , : : . . $ + O + O O O X X U.U.",
"U.U.-.F *.F F *.F F F A C C C C Z Z Z c c c c x x x l ) F.I.I.I.I.I.I.I.I.I.I.I.I.P.9.1 1 1 , , , : : . $ $ O .   O O X o @ U.U.",
"U.U.-.*.F *.F F F F A A C C C Z Z Z Z c c c c c x f ) H.I.I.I.I.I.I.I.I.I.I.I.I.I.I.I.k.9 , , , , : . . . . . . X O O X X @ X U.",
"U.*.-.*.*.F F F A F A A A A C Z Z Z c Z c c c x d ) F.I.I.I.I.I.I.I.I.I.I.I.I.I.I.I.I.I.k.2 > : , : . . . $ $ + + O O X X @ X U.",
"U.*.-.*.F *.F F F A F A A C C C Z Z Z Z c c x d R H.I.I.I.I.I.I.I.I.I.I.I.I.I.I.I.I.I.I.I.e.- : , : , . +   $ + . O O O X o X U.",
"U.*.-.F *.F F F F A A A A C C V C C c c c c x R C.F.c.g.y.7.#.#.3.0.y.h.S.I.I.I.I.I.I.I.I.I.! : , , . . . + . . O X O X X o X U.",
"U.*.*.*.F *.F *.F F F A A C C C Z c Z Z V c c T I M l f 5 5 5 5 4 3 3 3 e { v.I.I.I.I.I.I.I.h.: : : , . . . O O . O + X X o X U.",
"U.*.*.*.F *.F F F F F A C C C C Z Z Z c Z c x x z l l l l v l v 0 0 0 0 7 3 7 s.I.I.I.I.I.I.P.a : : . . . $ $ . O O X X X o X U.",
"U.*.*.*.F F *.F F F A A C C C Z Z Z Z c c c x x x l l l f l 0 v l 0 0 0 7 7 6 7 x.I.I.I.I.I.I.%.  , , . . $ $ + O O X   X O X U.",
"U.-.-.*.F F F F F F A C C C C Z Z Z Z z z z g z x M B I ( v v 0 0 j 5 0 7 0 7 < ^ I.I.I.I.I.I.e.  : : . $ $ . O + O O X o o X U.",
"U.*.*.*.F *.*.F F C F F D C C C Z Z Z K >.6.a.z.B.G.L.K.o.f l v 0 0 e 4 0 7 7 7 e H.I.I.I.I.I.k.  , : . O   . . + O O X X o X U.",
"U.*.-.*.F *.F F F F C C C C C C V R c.K.I.I.I.I.I.I.P. .5 v v 0 e 0 0 0 7 7 7 7 9 V.I.I.I.I.I.n., : , . $ $ + + + O O O X @ X U.",
"U.U.-.F *.F F F F F C F A C C V L S.I.I.I.I.I.I.I.K.[ f l l v v 5 0 0 0 0 7 7 7 6 M.I.I.I.I.I.n., : . . . $ . . O O O X O o U.U.",
"U.U.*.*.*.*.F F F A F C A C C A c.I.I.I.I.I.I.I.K.[ f l v v v f v 5 0 0 0 7 7 7 w G.I.I.I.I.I.v.: . : , . $ $ + + O O X o o U.U.",
"U.U.*.*.*.F F F F F F A A A V 8.I.I.I.I.I.I.I.L.[ d l l l l v e 5 e 0 0 7 0 7 * ..I.I.I.I.I.I.f.  , : $ . $ . + + O O O o o U.U.",
"U.U.*.-.F F F F F F C A C C ;.K.I.I.I.I.I.I.P.<.h x l l l v v v v 5 0 0 7 0 6 r C.I.I.I.I.I.I.%.  : , . +   . O . X O X O X U.U.",
"U.U.U.-.F *.*.F F F F C A V 8.I.I.I.I.I.I.I.6.h x l l l l v v v 5 e 0 0 3 < W B.I.I.I.I.I.I.P.i : , : . $ + . . + O + X @ U.U.U.",
"U.U.U.*.*.*.F F F A F A A A Z.I.I.I.I.I.I.B.g g h h l l l 5 5 5 5 3 3 q W u.P.I.I.I.I.I.I.I.f.- : : . . . $ $ +   O O X @ U.U.U.",
"U.U.U.*.-.*.F F F F A A C L L.I.I.I.I.I.I.L.t.<.[ ] ) I I E ( _  .4.d.V.I.I.I.I.I.I.I.I.I.J.s - , , , . . $ . + X O O @ X U.U.U.",
"U.U.U.U.*.F *.F F F A A C U K.I.I.I.I.I.I.I.I.I.I.I.I.P.I.P.I.I.I.I.I.I.I.I.I.I.I.I.I.I.I.X.- : , , . . . $ $ $ + + O @ U.U.U.U.",
"U.U.U.U.F -.F F F A A A C A Z.I.I.I.I.I.I.I.I.I.I.I.I.I.I.I.I.I.I.I.I.I.I.I.I.I.I.I.I.I.9.- 1 , , . : . . $ $ $ + O @ O U.U.U.U.",
"U.U.U.U.U.*.*.F F F F A A V 7.I.I.I.I.I.I.I.I.I.I.I.I.I.I.I.I.I.I.I.I.I.I.I.I.I.I.I.I.&.1 1 , , , , : . $ $ . + O O # U.U.U.U.U.",
"U.U.U.U.U.F *.F F F A A A C C l.I.I.I.I.I.I.I.I.I.I.I.I.I.I.I.I.I.I.I.I.I.I.I.I.I.n.! > 1 , 1 , , : , . $ $   + + O O U.U.U.U.U.",
"U.U.U.U.U.U.*.F F F F F A A Z A i.J.I.I.I.I.I.I.I.I.I.I.I.I.I.I.I.I.I.I.I.I.I.b.#.7 < 1 1 , , 1 : : . . . $ $ . O O U.U.U.U.U.U.",
"U.U.U.U.U.U.U.-.F F G D A Z Z Z V Y 8.c.G.I.I.I.I.I.I.I.I.I.I.I.I.I.I.G.c.w.Q 7 < < 7 1 1 1 1 , , : , . . $ $ + % O U.U.U.U.U.U.",
"U.U.U.U.U.U.U.F =.F F D A C C Z Z V V c D T ,.2.4.8.t.y.t.y.y.0.3. .Q r 7 < 6 7 1 7 6 1 1 1 1 : , : . . . . $ & + U.U.U.U.U.U.U.",
"U.U.U.U.U.U.U.U.F G F D A A C C Z Z Z c c x z h h d f f f 5 5 4 4 4 4 6 0 0 7 7 7 1 1 1 1 1 , 1 , , , . . . & $ U.U.U.U.U.U.U.U.",
"U.U.U.U.U.U.U.U.U.*.G D A A Z C Z Z Z c c c c x x x l l l l l 0 v 5 0 7 7 7 7 7 7 6 1 1 1 : 1 : , . : . . . & U.U.U.U.U.U.U.U.U.",
"U.U.U.U.U.U.U.U.U.U.G G A Z Z C Z Z c Z c c c c x l l l l v f e 5 e 0 0 4 e 7 7 6 6 2 6 1 1 1 : , , . . $ $ U.U.U.U.U.U.U.U.U.U.",
"U.U.U.U.U.U.U.U.U.U.U.G G D A Z Z Z Z Z c c x x x x m l l l e l v 0 0 0 7 7 7 2 7 6 6 1 1 1 , 1 , , . t t U.U.U.U.U.U.U.U.U.U.U.",
"U.U.U.U.U.U.U.U.U.U.U.U.G G Z C D Z c c Z c c x x x l l v v l 5 5 0 0 0 4 e 7 7 6 2 6 1 1 1 1 , , . y t U.U.U.U.U.U.U.U.U.U.U.U.",
"U.U.U.U.U.U.U.U.U.U.U.U.U.S G Z Z Z Z Z c c c x x x l l l v l 0 e 5 0 0 7 7 7 7 6 6 1 6 1 1 2 , , y t U.U.U.U.U.U.U.U.U.U.U.U.U.",
"U.U.U.U.U.U.U.U.U.U.U.U.U.U.S S S Z Z c c c x c x x l l l v l v 5 e 0 0 0 7 7 7 7 6 2 1 1 1 , u u : U.U.U.U.U.U.U.U.U.U.U.U.U.U.",
"U.U.U.U.U.U.U.U.U.U.U.U.U.U.U.U.S H S Z c c c x x x l l l e v j v e 4 7 e 7 7 7 7 1 8 1 1 , u , U.U.U.U.U.U.U.U.U.U.U.U.U.U.U.U.",
"U.U.U.U.U.U.U.U.U.U.U.U.U.U.U.U.U.U.Z H H Z x x x l l l l h v v v 5 0 0 4 7 7 7 7 6 8 8 2 1 U.U.U.U.U.U.U.U.U.U.U.U.U.U.U.U.U.U.",
"U.U.U.U.U.U.U.U.U.U.U.U.U.U.U.U.U.U.U.U.c Z H H m x x l l v 0 v 0 0 0 0 7 0 7 6 7 9 8 8 U.U.U.U.U.U.U.U.U.U.U.U.U.U.U.U.U.U.U.U.",
"U.U.U.U.U.U.U.U.U.U.U.U.U.U.U.U.U.U.U.U.U.U.U.c x m m m m m v v j j 0 q e k q 7 8 9 U.U.U.U.U.U.U.U.U.U.U.U.U.U.U.U.U.U.U.U.U.U.",
"U.U.U.U.U.U.U.U.U.U.U.U.U.U.U.U.U.U.U.U.U.U.U.U.U.U.U.m l v v v j 0 0 0 q U.U.U.U.U.U.U.U.U.U.U.U.U.U.U.U.U.U.U.U.U.U.U.U.U.U.U.",
"U.U.U.U.U.U.U.U.U.U.U.U.U.U.U.U.U.U.U.U.U.U.U.U.U.U.U.U.U.U.U.U.U.U.U.U.U.U.U.U.U.U.U.U.U.U.U.U.U.U.U.U.U.U.U.U.U.U.U.U.U.U.U.U."
};
